<svg version="1.1" xmlns="http://www.w3.org/2000/svg" viewBox="0 0 32 32">
<path d="M18.438 24.969v-1.563q1.188 0 1.875-0.328t0.688-1.109v-0.219l-0.406-4.188q-0.063-0.313-0.063-0.531 0-1.156 0.609-1.703t1.891-0.734q-1.25-0.219-1.875-0.797t-0.625-1.672q0-0.125 0.016-0.25t0.047-0.25l0.406-4.188v-0.219q0-1.438-2.563-1.438v-1.563q4.5 0 4.5 2.938v0.5l-0.438 3.875q0 0.125-0.016 0.219t-0.016 0.156q0 0.969 0.625 1.422t2.344 0.453v1.625q-1.688 0-2.328 0.469t-0.641 1.438q0 0.063 0.016 0.125t0.016 0.219l0.438 3.875v0.5q0 2.938-4.5 2.938zM13.563 24.969q-4.5 0-4.5-2.938v-0.5l0.438-3.875q0-0.156 0.016-0.219t0.016-0.125q0-0.969-0.641-1.438t-2.328-0.469v-1.625q1.719 0 2.344-0.453t0.625-1.422q0-0.063-0.016-0.156t-0.016-0.219l-0.438-3.875v-0.5q0-2.938 4.5-2.938v1.563q-2.563 0-2.563 1.438v0.219l0.406 4.188q0.031 0.125 0.047 0.25t0.016 0.25q0 1.094-0.609 1.672t-1.891 0.797q1.281 0.188 1.891 0.734t0.609 1.703q0 0.219-0.063 0.531l-0.406 4.188v0.219q0 0.781 0.688 1.109t1.875 0.328v1.563z"></path>
</svg>
