<svg version="1.1" xmlns="http://www.w3.org/2000/svg"  viewBox="2.5 3 26.5 24">
<path d="M20.125 24.969l-1.094-1.094q1.594-1.469 2.547-2.781t1.391-2.844q0.469-1.594 0.469-3.656 0-2.094-0.453-3.672t-1.422-2.859q-0.469-0.625-1.094-1.328t-1.438-1.422l1.094-1.094q1.813 1.5 2.922 2.969t1.766 3.281q0.344 0.906 0.484 1.922t0.141 2.203q0 2.313-0.656 4.188t-1.75 3.219q-0.594 0.719-1.297 1.469t-1.609 1.5zM11.875 24.969q-0.875-0.75-1.594-1.5t-1.313-1.469q-1.063-1.344-1.734-3.219t-0.672-4.188q0-1.188 0.156-2.203t0.469-1.922q0.656-1.813 1.766-3.281t2.922-2.969l1.094 1.094q-0.781 0.719-1.422 1.422t-1.109 1.328q-0.969 1.281-1.422 2.859t-0.453 3.672q0 2.063 0.469 3.656 0.438 1.531 1.391 2.844t2.547 2.781z" fill="#999999"/>
</svg>
